# xmcd
#
# Track frame offsets:
#	150
#	1742
#	2042
#	2342
#	2642
#	2942
#	3242
#	3542
#	3842
#	4142
#	4442
#	4742
#	5042
#	5342
#	5642
#	5942
#	6242
#	12923
#	13223
#	13523
#	13823
#	14123
#	14423
#	21104
#	21404
#	21704
#	22004
#	22304
#	22604
#	22904
#	23204
#	38893
#	39193
#	39493
#	39793
#	40093
#	40393
#	40693
#	40993
#	41293
#	41593
#	41893
#	42193
#	42493
#	42793
#	43093
#	56549
#	56849
#	57149
#	57449
#	57749
#	58049
#	58349
#	58649
#	58949
#	59249
#	59549
#	59849
#	71208
#	71508
#	71808
#	72108
#	72408
#	72708
#	73008
#	73308
#
# Disc length: 1531 seconds
#
# Revision: 0
# Processed by: cddbd v1.5.1PL2 Copyright (c) Steve Scherf et al.
# Submitted via: dBpowerAMP V4.0
#
DISCID=9c05f942
DTITLE=airport off the gumballs - 1172331465866
DYEAR=1900
DGENRE=Blues
TTITLE0=intro
TTITLE1=blank
TTITLE2=blank
TTITLE3=blank
TTITLE4=blank
TTITLE5=blank
TTITLE6=blank
TTITLE7=blank
TTITLE8=blank
TTITLE9=blank
TTITLE10=blank
TTITLE11=blank
TTITLE12=blank
TTITLE13=blank
TTITLE14=blank
TTITLE15=blank
TTITLE16=metal one
TTITLE17=blank
TTITLE18=blank
TTITLE19=blank
TTITLE20=blank
TTITLE21=blank
TTITLE22=bestiality
TTITLE23=blank
TTITLE24=blank
TTITLE25=blank
TTITLE26=blank
TTITLE27=blank
TTITLE28=blank
TTITLE29=blank
TTITLE30=end of hope (a new beginning)
TTITLE31=blank
TTITLE32=blank
TTITLE33=blank
TTITLE34=blank
TTITLE35=blank
TTITLE36=blank
TTITLE37=blank
TTITLE38=blank
TTITLE39=blank
TTITLE40=blank
TTITLE41=blank
TTITLE42=blank
TTITLE43=blank
TTITLE44=blank
TTITLE45=six hours with a handgun
TTITLE46=blank
TTITLE47=blank
TTITLE48=blank
TTITLE49=blank
TTITLE50=blank
TTITLE51=blank
TTITLE52=blank
TTITLE53=blank
TTITLE54=blank
TTITLE55=blank
TTITLE56=blank
TTITLE57=qwae-load
TTITLE58=blank
TTITLE59=blank
TTITLE60=blank
TTITLE61=blank
TTITLE62=blank
TTITLE63=blank
TTITLE64=blank
TTITLE65=bestiality (super sexxxy version)
EXTD=
EXTT0=
EXTT1=
EXTT2=
EXTT3=
EXTT4=
EXTT5=
EXTT6=
EXTT7=
EXTT8=
EXTT9=
EXTT10=
EXTT11=
EXTT12=
EXTT13=
EXTT14=
EXTT15=
EXTT16=
EXTT17=
EXTT18=
EXTT19=
EXTT20=
EXTT21=
EXTT22=
EXTT23=
EXTT24=
EXTT25=
EXTT26=
EXTT27=
EXTT28=
EXTT29=
EXTT30=
EXTT31=
EXTT32=
EXTT33=
EXTT34=
EXTT35=
EXTT36=
EXTT37=
EXTT38=
EXTT39=
EXTT40=
EXTT41=
EXTT42=
EXTT43=
EXTT44=
EXTT45=
EXTT46=
EXTT47=
EXTT48=
EXTT49=
EXTT50=
EXTT51=
EXTT52=
EXTT53=
EXTT54=
EXTT55=
EXTT56=
EXTT57=
EXTT58=
EXTT59=
EXTT60=
EXTT61=
EXTT62=
EXTT63=
EXTT64=
EXTT65=
PLAYORDER=
